<svg xmlns="http://www.w3.org/2000/svg" width="38" height="38" viewBox="0 0 38 38">
  <defs>
    <style>
      .cls-1 {
        fill: #484f5b;
      }

      .cls-1, .cls-2 {
        fill-rule: evenodd;
      }

      .cls-2 {
        fill: #fff;
      }
    </style>
  </defs>
  <path class="cls-1" d="M0-.9H38.75V38.9H0V-0.9Z"/>
  <path data-name="Shape" class="cls-2" d="M19.286,13.195a5.8,5.8,0,1,0,5.651,5.795A5.723,5.723,0,0,0,19.286,13.195Zm0,9.556a3.763,3.763,0,1,1,3.668-3.762A3.715,3.715,0,0,1,19.286,22.751ZM23.823,7.771c-2.026-.1-7.045-0.092-9.073,0A6.492,6.492,0,0,0,10.129,9.6c-2.118,2.172-1.847,5.1-1.847,9.391,0,4.393-.239,7.252,1.847,9.391,2.126,2.18,5.021,1.894,9.158,1.894,4.243,0,5.708,0,7.208-.593,2.04-.813,3.579-2.683,3.73-6.039,0.1-2.08.09-7.226,0-9.305C30.043,10.373,27.968,7.969,23.823,7.771Zm3.207,19.173c-1.388,1.424-3.314,1.3-7.771,1.3-4.588,0-6.428.069-7.771-1.311-1.547-1.579-1.267-4.113-1.267-7.955,0-5.2-.52-8.944,4.568-9.211,1.169-.043,1.513-0.057,4.456-0.057l0.041,0.028c4.89,0,8.727-.526,8.958,4.693,0.052,1.19.064,1.548,0.064,4.561C28.308,23.639,28.394,25.537,27.029,26.944ZM25.161,11.612a1.354,1.354,0,1,0,1.321,1.354A1.339,1.339,0,0,0,25.161,11.612Z"/>
</svg>
