<svg xmlns="http://www.w3.org/2000/svg" width="23" height="24" viewBox="0 0 23 24">
  <defs>
    <style>
      .cls-3 {
        fill: #fff;
      }

      .cls-3, .cls-4 {
        fill-rule: evenodd;
      }
    </style>
  </defs>
  <path id="Shape" class="cls-3" d="M-1.114-.88H23.527V24.693H-1.114V-0.88Z"/>
  <path id="Shape-2" data-name="Shape" class="cls-4" d="M11.666,8.545a3.336,3.336,0,0,0-3.273,3.4,3.336,3.336,0,0,0,3.273,3.4,3.336,3.336,0,0,0,3.273-3.4A3.336,3.336,0,0,0,11.666,8.545Zm0,5.6a2.206,2.206,0,1,1,2.125-2.2A2.165,2.165,0,0,1,11.666,14.146Zm2.628-8.779c-1.174-.057-4.081-0.054-5.255,0a3.736,3.736,0,0,0-2.676,1.07c-1.227,1.273-1.07,2.988-1.07,5.5,0,2.575-.138,4.251,1.07,5.5,1.231,1.278,2.908,1.11,5.3,1.11,2.458,0,3.306,0,4.175-.348A3.627,3.627,0,0,0,18,14.668c0.055-1.219.052-4.235,0-5.454C17.9,6.891,16.694,5.481,14.293,5.366ZM16.151,16.6c-0.8.834-1.92,0.76-4.5,0.76-2.658,0-3.723.041-4.5-.768-0.9-.926-0.734-2.411-0.734-4.663,0-3.047-.3-5.242,2.646-5.4C9.738,6.509,9.937,6.5,11.642,6.5l0.024,0.016c2.833,0,5.055-.308,5.188,2.751,0.03,0.7.037,0.907,0.037,2.673C16.891,14.667,16.941,15.779,16.151,16.6ZM15.068,7.617a0.794,0.794,0,1,0,.765.793A0.78,0.78,0,0,0,15.068,7.617Z"/>
</svg>
