<svg xmlns="http://www.w3.org/2000/svg" width="38" height="38" viewBox="0 0 38 38">
  <defs>
    <style>
      .cls-1 {
        fill: #484f5b;
      }

      .cls-1, .cls-2 {
        fill-rule: evenodd;
      }

      .cls-2 {
        fill: #fff;
      }
    </style>
  </defs>
  <path class="cls-1" d="M0-.481H38V38.481H0V-0.481Z"/>
  <path data-name="Shape" class="cls-2" d="M28.689,14.582a9.345,9.345,0,0,0,2.319-2.453h0a9.5,9.5,0,0,1-2.666.746,4.687,4.687,0,0,0,2.036-2.611,9.164,9.164,0,0,1-2.934,1.144,4.59,4.59,0,0,0-3.379-1.5,4.675,4.675,0,0,0-4.624,4.726,4.957,4.957,0,0,0,.107,1.077,13.012,13.012,0,0,1-9.537-4.943,4.84,4.84,0,0,0-.634,2.389,4.758,4.758,0,0,0,2.056,3.926,4.5,4.5,0,0,1-2.091-.582v0.052A4.723,4.723,0,0,0,13.049,21.2a4.489,4.489,0,0,1-1.213.156,4.051,4.051,0,0,1-.875-0.08,4.687,4.687,0,0,0,4.323,3.291,9.178,9.178,0,0,1-5.737,2.015,8.656,8.656,0,0,1-1.107-.064,12.837,12.837,0,0,0,7.1,2.12A13.239,13.239,0,0,0,28.689,14.582Z"/>
</svg>
