<svg xmlns="http://www.w3.org/2000/svg" width="22" height="24" viewBox="0 0 22 24">
  <defs>
    <style>
      .cls-3 {
        fill: #fff;
      }

      .cls-3, .cls-4 {
        fill-rule: evenodd;
      }
    </style>
  </defs>
  <path id="Shape" class="cls-3" d="M-0.911-1.13H23.3V24H-0.911V-1.13Z"/>
  <path id="Shape-2" data-name="Shape" class="cls-4" d="M16.607,9.358A5.442,5.442,0,0,0,17.95,7.92h0a5.461,5.461,0,0,1-1.544.437,2.742,2.742,0,0,0,1.179-1.531,5.252,5.252,0,0,1-1.7.671,2.645,2.645,0,0,0-1.958-.876,2.725,2.725,0,0,0-2.678,2.77,2.941,2.941,0,0,0,.062.632,7.508,7.508,0,0,1-5.524-2.9,2.864,2.864,0,0,0-.367,1.4,2.8,2.8,0,0,0,1.191,2.3A2.583,2.583,0,0,1,5.4,10.485v0.03a2.761,2.761,0,0,0,2.147,2.721,2.584,2.584,0,0,1-.7.091,2.307,2.307,0,0,1-.507-0.047,2.719,2.719,0,0,0,2.5,1.929A5.276,5.276,0,0,1,5.52,16.391a4.835,4.835,0,0,1-.641-0.038A7.369,7.369,0,0,0,8.99,17.6,7.723,7.723,0,0,0,16.607,9.358Z"/>
</svg>
